<?xml version="1.0" encoding="utf-8"?>
<!-- Generator: Adobe Illustrator 16.0.0, SVG Export Plug-In . SVG Version: 6.00 Build 0)  -->
<!DOCTYPE svg PUBLIC "-//W3C//DTD SVG 1.1//EN" "http://www.w3.org/Graphics/SVG/1.1/DTD/svg11.dtd">
<svg version="1.1" id="Layer_1" xmlns="http://www.w3.org/2000/svg" xmlns:xlink="http://www.w3.org/1999/xlink" x="0px" y="0px"
	 width="82.833px" height="20.726px" viewBox="0 0 82.833 20.726" enable-background="new 0 0 82.833 20.726" xml:space="preserve">
<g>
	<path fill="#8C8C8C" d="M31.063,20.095v-9.645c0-0.707-0.125-1.343-0.233-1.903l-0.058-0.3c-0.084-0.448-0.261-0.873-0.525-1.264
		c-0.169-0.25-0.426-0.444-0.762-0.577c-0.367-0.145-0.863-0.221-1.436-0.221c-0.44,0-0.761,0.026-1.32,0.093
		c0,0-0.313,0.043-0.313,0.044v13.772h-5.915V2.285l0.557-0.222c0.562-0.249,1.673-0.455,3.129-0.688
		c1.289-0.207,2.666-0.308,4.182-0.308c1.512,0,2.769,0.209,3.827,0.64c1.061,0.432,1.933,1.06,2.587,1.867
		c0.743,0.918,1.148,1.875,1.377,2.843c0.232,0.984,0.394,2.141,0.394,3.41v10.27H31.063z"/>
	<path fill="#8C8C8C" d="M58.1,20.095v-9.645c0-1.663-0.055-2.841-0.415-3.501c-0.181-0.328-0.498-0.765-1.729-0.765
		c-0.54,0-1.005,0.086-1.49,0.262c-0.245,0.09-0.426,0.171-0.585,0.244c0.021,0.114,0.037,1.685,0.045,3.714
		c0.016,3.969,0.017,9.69,0.017,9.69h-5.561v-9.645c0-1.123-0.04-2.707-0.482-3.493c-0.203-0.36-0.579-0.773-1.743-0.773
		c-0.405,0-0.746,0.031-1.239,0.092c0,0-0.337,0.038-0.337,0.04v13.779h-5.492V2.285l0.432-0.222c0.566-0.25,1.62-0.457,3.081-0.689
		c1.301-0.207,2.597-0.308,4-0.308c1.29,0,2.329,0.172,3.199,0.524c0.621,0.252,1.159,0.563,1.639,0.944
		c0.14-0.083,0.285-0.167,0.441-0.249c0.418-0.22,0.875-0.419,1.359-0.593c0.495-0.176,1.023-0.326,1.573-0.443
		c0.574-0.122,1.159-0.184,1.741-0.184c1.453,0,2.682,0.219,3.656,0.65c1.005,0.446,1.809,1.084,2.39,1.897
		c0.556,0.779,0.925,1.708,1.142,2.837c0.188,0.992,0.272,2.096,0.272,3.375v10.27H58.1z"/>
	<path fill="#8C8C8C" d="M73.556,20.726c-1.09,0-2.106-0.107-3.021-0.318c-0.964-0.223-1.805-0.591-2.499-1.097
		c-0.714-0.518-1.28-1.201-1.682-2.029c-0.395-0.816-0.595-1.817-0.595-2.973c0-1.131,0.232-2.114,0.687-2.922
		c0.451-0.798,1.071-1.457,1.842-1.958c0.744-0.483,1.611-0.833,2.574-1.04c0.923-0.199,1.897-0.299,2.898-0.299
		c0.447,0,0.854,0.025,1.405,0.088c0.178,0.02,0.356,0.046,0.536,0.075c0-0.273-0.008-0.513-0.063-0.719
		c-0.093-0.35-0.202-0.581-0.362-0.767c-0.194-0.225-0.428-0.386-0.737-0.507c-0.35-0.137-0.814-0.205-1.381-0.205
		c-0.871,0-1.675,0.062-2.391,0.185c-0.713,0.122-1.294,0.264-1.731,0.423l-0.97,0.352l-0.754-4.945l0.663-0.23
		c0.555-0.193,1.318-0.376,2.337-0.561C71.326,1.094,72.419,1,73.563,1c1.411,0,2.629,0.184,3.62,0.546
		c1.028,0.376,1.867,0.918,2.496,1.61c0.614,0.677,1.043,1.52,1.312,2.505c0.244,0.894,0.343,1.878,0.343,3.008v11.102l-0.608,0.167
		c-0.535,0.141-1.515,0.295-2.855,0.496C76.589,20.628,75.145,20.726,73.556,20.726z M74.318,12.648
		c-0.394,0-0.772,0.028-1.194,0.09c-0.359,0.052-0.673,0.146-0.965,0.287c-0.225,0.11-0.403,0.261-0.542,0.462
		c-0.118,0.171-0.178,0.415-0.178,0.723c0,0.966,0.328,1.166,0.45,1.242c0.462,0.282,1.165,0.419,2.001,0.419
		c0.891,0,1.531-0.034,1.953-0.073v-3.035c-0.422-0.003-0.238-0.026-0.238-0.026C75.218,12.676,74.761,12.648,74.318,12.648z"/>
	<path fill="#8C8C8C" d="M10.676,20.506C5.341,20.506,1,16.166,1,10.83c0-5.335,4.341-9.676,9.676-9.676
		c2.883,0,5.596,1.273,7.442,3.493l0.452,0.543l-3.512,3.511L14.523,7.98c-0.914-1.232-2.316-1.938-3.847-1.938
		c-2.64,0-4.788,2.147-4.788,4.788s2.148,4.788,4.788,4.788c1.505,0,2.893-0.688,3.808-1.887l0.538-0.705l3.503,3.503l-0.461,0.544
		C16.22,19.256,13.527,20.506,10.676,20.506z"/>
</g>
</svg>
