<?xml version="1.0" encoding="utf-8"?>
<!-- Generator: Adobe Illustrator 16.0.0, SVG Export Plug-In . SVG Version: 6.00 Build 0)  -->
<!DOCTYPE svg PUBLIC "-//W3C//DTD SVG 1.1//EN" "http://www.w3.org/Graphics/SVG/1.1/DTD/svg11.dtd">
<svg version="1.1" id="Layer_1" xmlns="http://www.w3.org/2000/svg" xmlns:xlink="http://www.w3.org/1999/xlink" x="0px" y="0px"
	 width="191.667px" height="48.905px" viewBox="0 0 191.667 48.905" enable-background="new 0 0 191.667 48.905"
	 xml:space="preserve">
<g>
	<path fill="#FFFFFF" d="M72,47V24.171c0-1.674-0.295-3.179-0.553-4.506l-0.137-0.709c-0.199-1.061-0.617-2.068-1.242-2.991
		c-0.401-0.593-1.009-1.053-1.805-1.367c-0.869-0.343-2.043-0.524-3.397-0.524c-1.041,0-1.802,0.062-3.125,0.22
		c0,0-0.741,0.101-0.741,0.105V47H47V4.841l1.318-0.527c1.329-0.588,3.96-1.077,7.407-1.629c3.052-0.49,6.312-0.729,9.901-0.729
		c3.579,0,6.552,0.495,9.057,1.514c2.511,1.022,4.577,2.509,6.124,4.418c1.759,2.173,2.719,4.438,3.26,6.731
		c0.551,2.33,0.933,5.067,0.933,8.07V47H72z"/>
	<path fill="#FFFFFF" d="M136,47V24.171c0-3.938-0.129-6.727-0.984-8.289c-0.426-0.776-1.177-1.81-4.09-1.81
		c-1.278,0-2.38,0.203-3.526,0.621c-0.581,0.212-1.01,0.405-1.386,0.577c0.049,0.271,0.086,3.99,0.106,8.792
		c0.04,9.395,0.042,22.938,0.042,22.938H113V24.171c0-2.659-0.097-6.409-1.142-8.27c-0.479-0.851-1.37-1.829-4.127-1.829
		c-0.958,0-1.765,0.074-2.932,0.219c0,0-0.799,0.09-0.799,0.093V47H91V4.841l1.023-0.527c1.339-0.592,3.833-1.08,7.293-1.63
		c3.077-0.49,6.146-0.728,9.469-0.728c3.052,0,5.514,0.406,7.572,1.24c1.468,0.596,2.742,1.332,3.879,2.233
		c0.331-0.197,0.674-0.393,1.042-0.587c0.99-0.522,2.07-0.994,3.22-1.404c1.169-0.417,2.421-0.77,3.722-1.048
		c1.358-0.289,2.744-0.435,4.122-0.435c3.438,0,6.348,0.517,8.653,1.538c2.379,1.055,4.282,2.566,5.656,4.491
		c1.318,1.845,2.191,4.043,2.703,6.717C149.8,17.05,150,19.663,150,22.689V47H136z"/>
	<path fill="#FFFFFF" d="M172.588,48.491c-2.58,0-4.988-0.253-7.152-0.752c-2.283-0.527-4.273-1.4-5.914-2.596
		c-1.691-1.228-3.029-2.844-3.979-4.804c-0.936-1.932-1.408-4.3-1.408-7.037c0-2.677,0.547-5.004,1.625-6.915
		c1.068-1.891,2.535-3.45,4.361-4.635c1.76-1.144,3.811-1.973,6.092-2.463c2.184-0.47,4.492-0.708,6.859-0.708
		c1.059,0,2.021,0.06,3.326,0.208c0.42,0.048,0.844,0.108,1.268,0.178c0-0.646-0.021-1.215-0.15-1.703
		c-0.219-0.829-0.477-1.374-0.857-1.815c-0.459-0.533-1.014-0.914-1.744-1.2c-0.828-0.323-1.928-0.486-3.27-0.486
		c-2.061,0-3.965,0.147-5.66,0.438c-1.686,0.289-3.064,0.625-4.098,1.001l-2.293,0.834l-1.787-11.705l1.572-0.546
		c1.313-0.456,3.121-0.89,5.531-1.327c2.398-0.437,4.986-0.658,7.693-0.658c3.34,0,6.223,0.435,8.568,1.293
		c2.434,0.89,4.42,2.172,5.908,3.812c1.453,1.602,2.469,3.597,3.105,5.93c0.578,2.117,0.814,4.446,0.814,7.121v26.281l-1.443,0.395
		c-1.264,0.335-3.585,0.699-6.757,1.175C179.767,48.261,176.346,48.491,172.588,48.491z M174.389,29.37
		c-0.93,0-1.828,0.068-2.826,0.215c-0.848,0.123-1.594,0.345-2.285,0.679c-0.533,0.259-0.953,0.617-1.283,1.093
		c-0.279,0.405-0.422,0.982-0.422,1.712c0,2.286,0.775,2.759,1.066,2.938c1.094,0.668,2.758,0.993,4.738,0.993
		c2.109,0,3.623-0.081,4.623-0.173v-7.183c-1-0.008-0.563-0.062-0.563-0.062C176.521,29.437,175.439,29.37,174.389,29.37z"/>
	<path fill="#FFFFFF" d="M23.743,47.973c-12.629,0-22.904-10.275-22.904-22.904c0-12.629,10.275-22.904,22.904-22.904
		c6.825,0,13.246,3.013,17.616,8.268l1.07,1.287l-8.313,8.311l-1.267-1.708c-2.163-2.916-5.482-4.588-9.106-4.588
		c-6.249,0-11.333,5.084-11.333,11.334c0,6.249,5.084,11.333,11.333,11.333c3.563,0,6.849-1.629,9.015-4.467l1.272-1.667
		l8.293,8.293l-1.091,1.288C36.867,45.013,30.492,47.973,23.743,47.973z"/>
</g>
</svg>
