<?xml version="1.0" encoding="utf-8"?>
<!-- Generator: Adobe Illustrator 16.0.0, SVG Export Plug-In . SVG Version: 6.00 Build 0)  -->
<!DOCTYPE svg PUBLIC "-//W3C//DTD SVG 1.1//EN" "http://www.w3.org/Graphics/SVG/1.1/DTD/svg11.dtd">
<svg version="1.1" id="Layer_1" xmlns="http://www.w3.org/2000/svg" xmlns:xlink="http://www.w3.org/1999/xlink" x="0px" y="0px"
	 width="151.452px" height="49.324px" viewBox="0 0 151.452 49.324" enable-background="new 0 0 151.452 49.324"
	 xml:space="preserve">
<g id="CSFD_1_">
	<g>
		<path fill-rule="evenodd" clip-rule="evenodd" fill="#FFFFFF" d="M151.141,14.33c-0.521-3.185-1.721-6.036-3.604-8.554
			c-1.492-2.073-3.527-3.555-6.105-4.443C138.848,0.445,135.832,0,132.383,0H74.457l-2.854,12.315h56.814
			c3.009,0,5.204,1.258,6.595,3.775c1.271,2.368,1.529,5.206,0.766,8.511c-0.836,3.604-2.786,6.564-5.846,8.882
			c-3.539,2.665-8.127,3.997-13.77,3.997l4.474-18.957h-14.739l-0.46,1.961l0.453-1.953H70.161l-3.272,14.117
			c0.45-3.093,0.006-6.299-1.328-9.617c-1.631-3.161-3.235-6.319-4.818-9.479c-1.824-3.802-2.638-7.308-2.433-10.518
			c0.124-0.542,0.281-1.011,0.47-1.406C58.967,1.234,59.262,0.692,59.663,0H45.696c-0.202,0.444-0.453,0.998-0.755,1.666
			c-0.301,0.665-0.54,1.368-0.712,2.109c-0.697,3.011-0.569,6.068,0.381,9.178c0.585,1.925,1.837,4.588,3.751,7.994
			c2.056,3.65,3.378,6.217,3.97,7.696c0.451,1.236,0.534,2.469,0.248,3.701c-0.308,1.333-0.983,2.443-2.027,3.331
			c-1.044,0.89-2.155,1.333-3.335,1.333h-17.29c-4.981,0-8.564-0.813-10.752-2.44c-2.736-2.021-3.546-5.444-2.426-10.274
			c0.959-4.141,3.424-7.221,7.395-9.242c3.187-1.626,7.049-2.438,11.587-2.438h3.329L41.985,0h-8.804
			c-8.138,0-15.156,2.296-21.054,6.887c-5.898,4.592-9.68,10.494-11.351,17.7c-1.363,5.876-0.93,11.136,1.298,15.775
			c2.857,5.976,8.157,8.962,15.899,8.962h28.104c5.223,0,9.771-1.531,13.635-4.594c3.231-2.556,5.412-5.685,6.552-9.384
			l-3.24,13.978H77.76l4.283-18.475h20.966L98.68,49.324h19.232c2.908,0,6.025-0.408,9.348-1.223
			c3.318-0.813,6.438-1.986,9.361-3.518c3.219-1.777,6.13-4.541,8.725-8.295c2.597-3.752,4.398-7.801,5.406-12.146
			C151.529,20.786,151.66,17.515,151.141,14.33z"/>
	</g>
</g>
</svg>
